<svg xmlns="http://www.w3.org/2000/svg" xmlns:xlink="http://www.w3.org/1999/xlink" id="Capa_1" x="0px" y="0px" viewBox="0 0 512 512" style="enable-background:new 0 0 512 512;" xml:space="preserve"><g>	<g>		<path d="M312.737,93.01c-1.02-4.094-3.708-7.616-7.375-9.663c-2.767-1.544-5.612-3.037-8.458-4.437   c-3.716-1.829-8.212-0.297-10.041,3.418c-1.829,3.717-0.298,8.212,3.418,10.041c2.613,1.286,5.227,2.657,7.768,4.076   c0.036,0.02,0.097,0.054,0.131,0.191c0.026,0.104,0.034,0.262-0.075,0.43c-14.654,22.7-27.834,43.251-39.175,61.083   c-0.136,0.213-0.333,0.265-0.386,0.254c-13.381-6.705-27.722-10.105-42.626-10.105c-6.429,0-12.753,0.638-18.943,1.901   l-13.979-44.735c-1.235-3.953-5.44-6.155-9.396-4.921c-3.953,1.235-6.157,5.442-4.921,9.396l13.886,44.434   c-3.132,1.184-6.222,2.53-9.26,4.056c-0.044,0.012-0.247-0.042-0.383-0.256c-11.367-17.873-24.524-38.389-39.108-60.979   c-0.107-0.167-0.1-0.325-0.074-0.428c0.035-0.139,0.096-0.174,0.133-0.194c25.075-14.034,53.446-21.452,82.046-21.452   c14.86,0,29.606,1.937,43.829,5.757c3.999,1.078,8.114-1.297,9.188-5.298c1.075-4-1.297-8.114-5.298-9.188   c-15.49-4.161-31.545-6.271-47.719-6.271c-31.16,0-62.064,8.079-89.373,23.362c-3.662,2.05-6.346,5.573-7.363,9.666   c-1.031,4.147-0.291,8.587,2.03,12.182c14.565,22.562,27.704,43.048,39.053,60.893c2.948,4.635,7.91,7.219,13.005,7.219   c2.287,0,4.602-0.521,6.771-1.611c11.271-5.662,23.342-8.533,35.877-8.533c12.55,0,24.63,2.865,35.907,8.516   c6.998,3.505,15.495,1.093,19.762-5.615c11.323-17.804,24.485-38.327,39.121-60.997C313.032,101.604,313.771,97.16,312.737,93.01z   "></path>	</g></g><g>	<g>		<path d="M431.839,273.084V59.605c0-21.816-17.749-39.564-39.564-39.564H39.564C17.749,20.041,0,37.789,0,59.605V380.25   c0,21.816,17.749,39.564,39.564,39.564h256.261c16.008,42.125,56.793,72.145,104.465,72.145   c61.597,0,111.71-50.112,111.71-111.709C512,329.606,478.121,286.732,431.839,273.084z M291.307,404.813H39.564v0.001   C26.02,404.814,15,393.795,15,380.25V59.605c0-13.545,11.02-24.564,24.564-24.564h352.71c13.545,0,24.564,11.02,24.564,24.564   v210.163c-5.401-0.806-10.926-1.228-16.548-1.228c-61.597,0-111.71,50.113-111.71,111.709   C288.58,388.686,289.526,396.906,291.307,404.813z M400.291,476.959c-53.326,0-96.71-43.384-96.71-96.709   s43.384-96.709,96.71-96.709S497,326.925,497,380.25C497,433.575,453.616,476.959,400.291,476.959z"></path>	</g></g><g>	<g>		<path d="M461.707,344.886c-2.929-2.928-7.678-2.928-10.607,0l-64.473,64.473c-0.038,0.037-0.151,0.151-0.365,0.151   s-0.328-0.114-0.365-0.151l-36.417-36.417c-2.929-2.929-7.678-2.929-10.606,0c-2.929,2.929-2.929,7.678,0,10.606l36.417,36.417   c3.025,3.025,6.998,4.538,10.972,4.538c3.973,0,7.946-1.513,10.971-4.538l64.473-64.473   C464.636,352.563,464.636,347.814,461.707,344.886z"></path>	</g></g><g></g><g></g><g></g><g></g><g></g><g></g><g></g><g></g><g></g><g></g><g></g><g></g><g></g><g></g><g></g></svg>