<svg xmlns="http://www.w3.org/2000/svg" xmlns:xlink="http://www.w3.org/1999/xlink" width="512" height="512" x="0" y="0" viewBox="0 0 64 64" style="enable-background:new 0 0 512 512" xml:space="preserve" class=""><g><linearGradient id="a" x1="4.02" x2="59.98" y1="32" y2="32" gradientUnits="userSpaceOnUse"><stop stop-opacity="1" stop-color="#0097b2" offset="0"></stop><stop stop-opacity="1" stop-color="#3cc7c6" offset="1"></stop></linearGradient><path fill="url(#a)" d="M48.89 37.67c-1.18-2.27-2.684-4.237-3.31-6.79a23.628 23.628 0 0 1-.75-6.98c.243-6.413 5.027-12.448 6.36-18.69A1.008 1.008 0 0 0 50.21 4H13.79a1.007 1.007 0 0 0-.78.37 1.023 1.023 0 0 0-.2.84 40.215 40.215 0 0 0 3.01 8.01c2.887 5.632 4.398 11.611 2.6 17.68-.826 3.226-3.016 5.634-4.24 8.7a28.947 28.947 0 0 0-2.33 11.64V59a1.003 1.003 0 0 0 1 1h16.03a1.003 1.003 0 0 0 1-1v-2.95a7.292 7.292 0 0 0 4.24 0V59a1.003 1.003 0 0 0 1 1h16.03a1.006 1.006 0 0 0 1-1v-7.76a28.682 28.682 0 0 0-3.26-13.57zm-16.81 2.56a40.226 40.226 0 0 1-14.61-2.69c.14-.24.28-.5.42-.74a21.888 21.888 0 0 0 2.17-18.57 38.48 38.48 0 0 1 23.88 0 21.942 21.942 0 0 0 2.17 18.58l.42.72a40.424 40.424 0 0 1-14.45 2.7zm.92-7.148v1a1 1 0 1 1-2 0v-1a1 1 0 1 1 2 0zM59 29h-7.586l1.293 1.293a1 1 0 1 1-1.414 1.414l-3-2.999a1.01 1.01 0 0 1 0-1.416l3-2.999a1 1 0 0 1 1.414 1.414L51.414 27H59a1 1 0 0 1 0 2zm-47.707 1.293L12.586 29H5a1 1 0 0 1 0-2h7.586l-1.293-1.293a1 1 0 0 1 1.414-1.414l3 3a1.01 1.01 0 0 1 0 1.415l-3 3a1 1 0 0 1-1.414-1.415z" opacity="1" data-original="url(#a)" class=""></path></g></svg>