<svg xmlns="http://www.w3.org/2000/svg" xmlns:xlink="http://www.w3.org/1999/xlink" width="512" height="512" x="0" y="0" viewBox="0 0 64 64" style="enable-background:new 0 0 512 512" xml:space="preserve" class=""><g><linearGradient id="a" x1="7.25" x2="56.75" y1="31.994" y2="31.994" gradientUnits="userSpaceOnUse"><stop stop-opacity="1" stop-color="#0097b2" offset="0.013513513513513514"></stop><stop stop-opacity="1" stop-color="#3cc7c6" offset="1"></stop></linearGradient><path fill="url(#a)" d="M31.58 41.574v2.852a1 1 0 0 1-2 0v-2.852a1 1 0 0 1 2 0zM56.75 30.39v4.46a3.003 3.003 0 0 1-3 3c-1.475 0-4.442-.002-5.913 0 .618 1.918 3.62 7.812 4.513 9.746 1.672 2.974 1.073 8.11 1.17 11.404a1 1 0 0 1-2 0v-3.944a86.26 86.26 0 0 1-20.73 2.6A79.187 79.187 0 0 1 9.64 54.78V59a1 1 0 0 1-2 0c.1-3.253-.506-8.447 1.169-11.404 0 0 4.189-8.878 4.513-9.746H11.77a4.524 4.524 0 0 1-4.52-4.52v-8.95a.95.95 0 0 1 .035-.172 4.827 4.827 0 0 1 4.805-4.488h3.683a44.629 44.629 0 0 0-3.484-14.284 1 1 0 0 1 1.8-.872 45.926 45.926 0 0 1 3.759 16.1 45.615 45.615 0 0 1-.215 7.84 1.103 1.103 0 0 1-.216.49.977.977 0 0 1-.777.396h-4.55a4.758 4.758 0 0 1-2.84-.944v4.884a2.522 2.522 0 0 0 2.52 2.52h.71v-1.345a1 1 0 0 1 2 0v1.345h5.461v-2.89a1 1 0 0 1 2 0v2.89h5.462v-1.345a1 1 0 0 1 2 0v1.345h5.461v-2.89a1 1 0 0 1 2 0v2.89h5.462v-1.345a1 1 0 0 1 2 0v1.345h5.461v-2.89a1 1 0 0 1 2 0v2.89h1.963a1 1 0 0 0 1-1v-4.46a1 1 0 0 0-1-1H20.93a1 1 0 0 1 0-2h22.483a47.056 47.056 0 0 1 3.655-22.825 1 1 0 0 1 1.801.87 45.986 45.986 0 0 0-3.446 21.955h8.327a3.003 3.003 0 0 1 3 3zm-44.66-3h3.638a43.796 43.796 0 0 0 .158-5.67H12.09a2.835 2.835 0 0 0 0 5.67zm33.62 10.46c-1.614-.001-24.27-.002-30.26 0a94.205 94.205 0 0 1-4.017 8.907 77.741 77.741 0 0 0 27.109 2.097 1 1 0 1 1 .195 1.99q-3.965.392-7.918.391a79.602 79.602 0 0 1-20.267-2.631 9.768 9.768 0 0 0-.912 4.104 79.856 79.856 0 0 0 41.88.288 9.852 9.852 0 0 0-.823-4.173 90.198 90.198 0 0 1-7.923 1.536 1 1 0 0 1-.289-1.978 88.1 88.1 0 0 0 7.345-1.408s-3.704-7.946-4.12-9.123z" opacity="1" data-original="url(#a)"></path></g></svg>