<svg xmlns="http://www.w3.org/2000/svg" xmlns:xlink="http://www.w3.org/1999/xlink" width="512" height="512" x="0" y="0" viewBox="0 0 496 496" style="enable-background:new 0 0 512 512" xml:space="preserve" class=""><g><linearGradient id="a" x1="248" x2="248" y1="496" y2="0" gradientUnits="userSpaceOnUse"><stop stop-opacity="1" stop-color="#0097b2" offset="0.005791505791505791"></stop><stop stop-opacity="1" stop-color="#3cc7c6" offset="1"></stop></linearGradient><path fill="url(#a)" d="M486.656 12.441 494.946 0h-26.259l-2.343 2.344C397.77 70.922 360 162.098 360 259.078V272h-97.055c11.063-63.887 35.27-124.902 71.711-179.559L342.946 80h-26.259l-2.343 2.344C261.855 134.832 227.504 200.566 214.23 272H106.52c7.761-75.488 33.656-147.84 76.136-211.559L190.946 48h-26.258l-2.344 2.344C102.105 110.586 65.664 188.266 57.688 272H0v224h496V272h-88c.047-92.68 27.23-182.441 78.656-259.559zM376 377.785V259.078C376 182.602 400.559 109.91 445.96 50 410.52 118.496 392 194.36 392 272.215v105.562l2.64 2.383c3.458 3.121 5.36 7.328 5.36 11.84 0 8.824-7.176 16-16 16s-16-7.176-16-16c0-4.512 1.902-8.719 5.36-11.832zM360 288v24.39c-7.96-4.75-17.871-8.39-32.07-8.39-22.809 0-34.594 9.434-44.993 17.754-7.84 6.277-14.89 11.781-26.632 13.582.566-15.902 1.992-31.688 4.144-47.328H360zm-136 51.078c0-76.476 24.559-149.168 69.96-209.078C258.52 198.496 240 274.36 240 352.215v32.394l4.793 2.094C256.465 391.816 264 403.313 264 416c0 17.648-14.352 32-32 32s-32-14.352-32-32c0-12.688 7.535-24.184 19.207-29.297L224 384.61zM211.602 288a365.646 365.646 0 0 0-2.97 30.367C199.153 311.07 187.68 304 167.938 304c-22.8 0-34.585 9.434-44.984 17.754-6.05 4.84-11.504 9.176-18.953 11.766v-13.297c0-10.782.406-21.528 1.137-32.215h106.465zM72 369.785v-62.707C72 230.602 96.559 157.91 141.96 98 106.52 166.496 88 242.36 88 320.215v49.562l2.64 2.383C94.099 375.281 96 379.488 96 384c0 8.824-7.176 16-16 16s-16-7.176-16-16c0-4.512 1.902-8.719 5.36-11.832zM56.512 288A368.565 368.565 0 0 0 56 307.078v17c-1-.781-2-1.512-3.016-2.316-9.105-7.29-19.28-15.434-36.984-17.348V288zM16 480v-47.39c11.96 1.734 19.063 7.292 26.977 13.628C53.375 454.566 65.16 464 87.96 464c22.8 0 34.582-9.434 44.984-17.754 9.551-7.644 17.809-14.246 34.993-14.246v-16c-22.81 0-34.594 9.434-44.993 17.762C113.391 441.398 105.152 448 87.961 448c-17.191 0-25.441-6.602-34.984-14.246-9.106-7.29-19.282-15.426-36.977-17.34V320.61c11.969 1.735 19.07 7.293 26.984 13.637 4.016 3.211 8.153 6.496 13.016 9.387v19.328c-5.129 5.832-8 13.312-8 21.039 0 17.648 14.352 32 32 32s32-14.352 32-32c0-7.727-2.871-15.207-8-21.04v-12.815c12.938-3.153 21.39-9.856 28.953-15.907 9.543-7.636 17.8-14.238 34.984-14.238s25.446 6.602 35 14.238c1.665 1.328 3.383 2.602 5.086 3.899 0 .312-.023.625-.023.933v35.395c-14.734 8.512-24 24.289-24 41.527 0 26.473 21.527 48 48 48s48-21.527 48-48c0-17.238-9.266-33.015-24-41.527v-22.25c0-.215.008-.422.008-.64 17.672-1.919 27.832-10.048 36.93-17.329C302.495 326.602 310.741 320 327.93 320c15.46 0 23.664 5.313 32.07 11.91v39.05c-5.129 5.833-8 13.313-8 21.04 0 17.648 14.352 32 32 32s32-14.352 32-32c0-7.727-2.871-15.207-8-21.04V352c22.793-.008 34.574-9.434 44.984-17.754 7.926-6.344 15.032-11.902 27.016-13.637v95.805c-17.71 1.906-27.895 10.043-37.008 17.328-9.558 7.656-17.824 14.258-35.031 14.258-17.2 0-25.465-6.602-35.016-14.246-10.41-8.32-22.203-17.754-45.015-17.754-13.075 0-23.953 3.105-34.243 9.762l8.688 13.437c5.496-3.566 12.832-7.199 25.555-7.199 17.199 0 25.46 6.602 35.015 14.246 10.407 8.32 22.207 17.754 45.016 17.754 22.824 0 34.605-9.434 45.023-17.754 7.926-6.344 15.032-11.902 27.016-13.637V480zm464-175.586c-17.71 1.906-27.895 10.043-37.008 17.328-9.55 7.649-17.808 14.242-34.992 14.258v-48h72zm0 0" opacity="1" data-original="url(#a)" class=""></path></g></svg>