<svg xmlns="http://www.w3.org/2000/svg" xmlns:xlink="http://www.w3.org/1999/xlink" width="512" height="512" x="0" y="0" viewBox="0 0 64 64" style="enable-background:new 0 0 512 512" xml:space="preserve" class=""><g><linearGradient id="a" x1="32" x2="32" y1="63" y2=".689" gradientUnits="userSpaceOnUse"><stop stop-opacity="1" stop-color="#3cc7c6" offset="0"></stop><stop stop-opacity="1" stop-color="#0bb1d3" offset="1"></stop></linearGradient><path fill="url(#a)" d="M44.006 21.489A7.134 7.134 0 0 0 45 17.843a3.79 3.79 0 0 0-.289-1.46l1.849-.765a5.8 5.8 0 0 1 .44 2.225c0 1.649-.44 3.264-1.274 4.668zm-.373 3.449-1.267-1.548a7.116 7.116 0 0 1-1.753 1.056l.773 1.845a9.053 9.053 0 0 0 2.247-1.353zM40.375 57.21l-.084.085 1.418 1.41.083-.083a13.887 13.887 0 0 1 6.451-3.652l-.485-1.939a15.887 15.887 0 0 0-7.383 4.179zM63 40c0 3.687-2.868 6.711-6.489 6.974A10.851 10.851 0 0 1 59 53.899c0 2.911-1.134 5.648-3.192 7.707A4.728 4.728 0 0 1 52.443 63H24.121a3.116 3.116 0 0 1-2.942-2.121H8.864A5.87 5.87 0 0 1 3 55.015c0-1.566.61-3.039 1.718-4.146l1.139-1.139a6.44 6.44 0 0 1-.856-3.111l-.497-.249A6.305 6.305 0 0 1 1 40.7a6.37 6.37 0 0 1 4.113-5.936l2.846-1.067A11.938 11.938 0 0 1 7 29v-1c0-6.065 4.935-11 11-11 3.029 0 5.924-.537 8.679-1.595l.308-.617C27.65 13.464 28 11.981 28 10.5s-.35-2.964-1.013-4.289l-1.439-2.879L36.123.688l-.842 9.257A9.88 9.88 0 0 1 41.157 8c5.426 0 9.842 4.415 9.843 9.841a13.066 13.066 0 0 1-3.853 9.305A13.07 13.07 0 0 1 37.844 31a32.94 32.94 0 0 1-16.941-4.692l-1.487-.892a2.918 2.918 0 0 0-1.5-.416A2.92 2.92 0 0 0 15 27.916V29c0 2.206 1.794 4 4 4h37c3.86 0 7 3.141 7 7zM19 18.978v4.153c.506.115.996.3 1.444.569l1.487.892A30.93 30.93 0 0 0 37.843 29c2.98 0 5.783-1.161 7.89-3.269A11.084 11.084 0 0 0 49 17.841C48.999 13.518 45.48 10 41.157 10c-1.806 0-3.57.63-4.967 1.773l-3.331 2.725 1.017-11.187-5.425 1.356.325.649C29.577 6.917 30 8.71 30 10.5s-.423 3.583-1.224 5.183l-.649 1.298-.352.142A25.873 25.873 0 0 1 19 18.978zM61 40c0-2.757-2.243-5-5-5H19c-3.309 0-6-2.691-6-6v-1.084c0-2.397 1.727-4.392 4-4.823v-4.024c-4.524.527-8 4.328-8 8.931v1c0 5.514 4.486 10 10 10h38v2H19c-4.231 0-7.95-2.207-10.087-5.524l-3.098 1.162A4.357 4.357 0 0 0 3 40.7c0 1.654.919 3.142 2.399 3.881L7 45.382v1.137C7 48.989 9.01 51 11.481 51c.813 0 1.61-.221 2.305-.639l3.699-2.219 1.029 1.715-2.753 1.651A5.759 5.759 0 0 0 19.605 53c2.566 0 4.979-1 6.795-2.814l.893-.893 1.414 1.414-.893.893c-.258.258-.527.499-.804.729l.954.763A8.753 8.753 0 0 0 33.407 55a8.72 8.72 0 0 0 5.67-2.097l1.419-1.217a11.167 11.167 0 0 1 7.261-2.687A5.25 5.25 0 0 1 53 54.242a5.206 5.206 0 0 1-1.536 3.708l-.756.757-1.415-1.414.757-.758c.613-.612.95-1.426.95-2.293A3.246 3.246 0 0 0 47.757 51a9.158 9.158 0 0 0-5.959 2.205l-1.419 1.216A10.72 10.72 0 0 1 33.407 57c-2.423 0-4.799-.833-6.692-2.347l-1.429-1.144A11.525 11.525 0 0 1 19.605 55a7.738 7.738 0 0 1-3.419-.804A10.574 10.574 0 0 1 9 57v-2a8.594 8.594 0 0 0 5.481-1.955 7.694 7.694 0 0 1-.552-.532 6.478 6.478 0 0 1-2.448.487 6.45 6.45 0 0 1-4.364-1.703l-.985.985A3.84 3.84 0 0 0 5 55.015a3.868 3.868 0 0 0 3.864 3.864H21.18c.153-.45.395-.868.734-1.207l1.379-1.379 1.414 1.414-1.379 1.379A1.122 1.122 0 0 0 24.121 61h28.322c.737 0 1.429-.287 1.95-.808A8.838 8.838 0 0 0 57 53.9c0-4.907-3.992-8.9-8.899-8.9-3.139 0-6.178.92-8.79 2.661l-.346.231a4.486 4.486 0 0 1-1.294 2.85l-1.964 1.965-1.414-1.414 1.964-1.965A2.52 2.52 0 0 0 37 47.535 2.54 2.54 0 0 0 34.464 45c-3.901 0-7.569 1.52-10.329 4.278l-.429.429-1.414-1.414.429-.429c.45-.45.927-.862 1.417-1.253A7.179 7.179 0 0 0 19.587 45c-.925 0-1.829.174-2.689.518l-1.738.696a10.985 10.985 0 0 1-4.086.786H9v-2h2.074a8.975 8.975 0 0 0 3.343-.644l1.738-.696a9.22 9.22 0 0 1 3.432-.66c2.334 0 4.53.869 6.239 2.439A16.486 16.486 0 0 1 34.464 43a4.54 4.54 0 0 1 4.16 2.737A17.778 17.778 0 0 1 48.101 43c2.335 0 4.496.745 6.271 2H56c2.757 0 5-2.243 5-5z" opacity="1" data-original="url(#a)" class=""></path></g></svg>