<svg xmlns="http://www.w3.org/2000/svg" xmlns:xlink="http://www.w3.org/1999/xlink" width="512" height="512" x="0" y="0" viewBox="0 0 512 512" style="enable-background:new 0 0 512 512" xml:space="preserve" class=""><g><linearGradient id="a" x1="255.187" x2="255.187" y1="452.107" y2="39.3" gradientUnits="userSpaceOnUse"><stop stop-opacity="1" stop-color="#0097b2" offset="0.322"></stop><stop stop-opacity="1" stop-color="#0097b2" offset="0.33783783783783783"></stop><stop stop-opacity="1" stop-color="#0097b2" offset="0.466"></stop><stop stop-opacity="1" stop-color="#3cc7c6" offset="0.898"></stop></linearGradient><linearGradient xlink:href="#a" id="b" x1="90.537" x2="90.537" y1="452.107" y2="39.298"></linearGradient><linearGradient xlink:href="#a" id="c" x1="468.674" x2="468.674" y1="452.107" y2="39.298"></linearGradient><linearGradient xlink:href="#a" id="d" x1="362.488" x2="362.488" y1="452.107" y2="39.298"></linearGradient><linearGradient xlink:href="#a" id="e" x1="255.99" x2="255.99" y1="452.107" y2="39.298"></linearGradient><path fill="url(#a)" d="M328.667 422.442c-32.661 20.147-67.228 27.029-102.735 20.458-26.649-4.931-43.9-16.019-44.092-16.142a6 6 0 0 0-6.574 10.039c.765.5 19.071 12.354 47.942 17.8a151.588 151.588 0 0 0 28.074 2.623c23.861 0 53.011-5.646 83.685-24.566a6 6 0 1 0-6.3-10.214z" opacity="1" data-original="url(#a)"></path><path fill="url(#b)" d="M44.847 278.554a6 6 0 0 0 .382 11.994c.6-.024 60.436-1.4 85.576 43.313a6 6 0 0 0 10.46-5.882C112.6 276.994 47.6 278.465 44.847 278.554z" opacity="1" data-original="url(#b)"></path><path fill="url(#c)" d="M464.1 369.868a6 6 0 0 0 7.806-3.329c11.628-28.924-.078-46.928-.583-47.681a6 6 0 0 0-10 6.627c.355.556 8.586 13.86-.547 36.577a6 6 0 0 0 3.324 7.806z" opacity="1" data-original="url(#c)"></path><path fill="url(#d)" d="M362.735 227.727a6 6 0 0 0-7.184 4.516c-.3 1.305-7.158 32.237 4.784 55.087a6 6 0 0 0 10.635-5.559c-9.874-18.892-3.781-46.588-3.718-46.865a6 6 0 0 0-4.517-7.179z" opacity="1" data-original="url(#d)"></path><path fill="url(#e)" d="M471.424 232.174c-4.351-8.386-9.284-17.892-14.954-29.051-31.083-61.163-51.27-140.145-56.717-162.895a31.23 31.23 0 0 0-11.086-17.24l-.8-.622a31.581 31.581 0 0 0-23.2-6.422c-24.151 2.732-57.485-5.158-75.207-10.108a22.519 22.519 0 0 0-24.96 9.331l-22.336 34a22.482 22.482 0 0 0-.336 24.088l16.682 27.211a26.142 26.142 0 0 0-5.334 10.521c-1.33 5.794.014 11.557 3.594 15.416 7.1 7.656 15.27 11.486 24.071 11.486 8.536 0 17.668-3.607 26.992-10.822 8.244-6.38 16.682-7.511 24.842-8.605 1.478-.2 2.979-.4 4.481-.641 1.93 10.571 4.364 35.923-8.159 66.062a183.269 183.269 0 0 0-8.294 25.771 5.975 5.975 0 0 0 5.794 7.416h.007a5.967 5.967 0 0 0 5.784-4.519 172.734 172.734 0 0 1 7.79-24.063c14.163-34.084 10.951-62.571 8.657-74.084 6.723-3.469 12.113-10.225 13.6-24.639a6 6 0 1 0-11.936-1.23c-1.125 10.914-3.987 14.557-9.854 16.332a6.53 6.53 0 0 0-.627.157c-.078.024-.152.057-.229.084a75.569 75.569 0 0 1-8.606 1.461c-8.82 1.182-19.8 2.654-30.592 11.008-8.881 6.873-22.163 14.417-34.922.665-.675-.729-1.214-2.313-.695-4.571.37-1.616 1.531-4.488 5.069-7.965a5.953 5.953 0 0 0 .442-.427c3.789-3.577 10.1-7.751 20.6-11.848 12.4-4.835 20.122-11.9 22.957-20.99 3.968-12.725-3.61-24.146-3.935-24.625a6 6 0 1 0-9.94 6.721c.047.07 4.652 7.173 2.419 14.332-1.695 5.437-7.031 9.939-15.86 13.381a87.911 87.911 0 0 0-19.115 9.94l-15.469-25.23a10.454 10.454 0 0 1 .151-11.2l22.336-34a10.551 10.551 0 0 1 11.707-4.362c18.564 5.185 53.614 13.438 79.786 10.474a19.649 19.649 0 0 1 14.451 3.947l.8.623a19.183 19.183 0 0 1 6.812 10.584c5.524 23.074 26.011 103.2 57.688 165.538 5.694 11.2 10.639 20.733 15 29.141 17.953 34.6 25.384 48.919 30.984 76.39 7.5 36.789.4 52.605-5.857 66.559-4.537 10.116-8.823 19.67-7.406 34.4.009.1.021.192.035.288 2.243 15.438-.068 26.549-6.867 33.025-10.778 10.263-31.4 7.565-39.766 5.929a32.041 32.041 0 0 0-18.638 1.882c-51.977 21.867-102.2 34.635-149.282 37.949-37.55 2.643-73.2-.688-105.963-9.9-44.623-12.55-74.809-34.052-84.536-43.669a6 6 0 0 0-8.458 8.514c.78.776 13.09 12.808 37.19 25.727C66.58 492.168 29 483.831 17 480.4V215.891c11.986 6.216 34.366 21.368 43.729 51.121a6 6 0 1 0 11.447-3.6c-.2-.652-.418-1.3-.634-1.935a228.971 228.971 0 0 1 59.444 18.542c29.687 14.173 52.771 34.218 68.61 59.58a6 6 0 1 0 10.178-6.357 161.857 161.857 0 0 0-27.88-33.507c19.895-9.433 76.564-30.61 133.165.847 2.292 13.62 6.821 26.862 15.421 34.76a6 6 0 0 0 8.327-.2 6.226 6.226 0 0 0-.39-8.8c-11.719-11.034-15.3-41.092-12.765-72.789a5.97 5.97 0 1 0-11.9-.993c-.37 4.49-.627 8.962-.754 13.374-.163 5.719-.141 12.78.387 20.277-29.4-14.165-62.581-17.9-96.675-10.76a176.042 176.042 0 0 0-44.777 15.827 190.069 190.069 0 0 0-35.778-22.082c-26.277-12.544-52.075-18.177-70.063-20.707-17.98-35.408-51.6-46.974-53.2-47.506a6 6 0 0 0-7.586 3.8L5 484.8a6 6 0 0 0 3.908 5.625 139.3 139.3 0 0 0 44.751 7.172c18.482 0 40.5-3.678 61.684-16.265a267.111 267.111 0 0 0 38.625 14.216A311.375 311.375 0 0 0 239.305 507q12.318 0 24.923-.867c48.572-3.343 100.272-16.433 153.684-38.9a20.058 20.058 0 0 1 11.68-1.166c12.665 2.477 36.048 4.6 50.345-9.016 9.755-9.29 13.284-23.856 10.489-43.292-1.073-11.486 2.237-18.865 6.423-28.2 6.654-14.834 14.935-33.294 6.666-73.867-5.934-29.111-13.592-43.867-32.091-79.518z" opacity="1" data-original="url(#e)"></path></g></svg>