<svg xmlns="http://www.w3.org/2000/svg" xmlns:xlink="http://www.w3.org/1999/xlink" width="512" height="512" x="0" y="0" viewBox="0 0 512 512" style="enable-background:new 0 0 512 512" xml:space="preserve" class=""><g><linearGradient id="a" x1="49.393" x2="403.998" y1="458.567" y2="103.962" gradientUnits="userSpaceOnUse"><stop stop-opacity="1" stop-color="#3cc7c6" offset="0"></stop><stop stop-opacity="1" stop-color="#46c9f9" offset="0.989"></stop></linearGradient><path fill="url(#a)" d="M462.024 344.151c-15.782-28.319-42.903-45.352-74.321-41.971V100.404c0-16.982-13.816-30.798-30.802-30.798h-54.49c-2.487-11.446-12.671-20.055-24.852-20.055h-32.942c3.883-15.727-6.821-30.691-21.752-33.056-16.697-2.649-31.326 10.152-31.326 26.589 0 2.184.266 4.35.79 6.467h-32.942c-12.178 0-22.361 8.609-24.848 20.055H80.058c-16.982 0-30.798 13.816-30.798 30.798v345.291c0 16.985 13.816 30.802 30.798 30.802h186.747c10.274 11.599 22.361 19.358 35.672 19.358 11.19 0 22.187-2.704 32.005-7.847 9.828 5.143 20.848 7.847 32.078 7.847 27.98 0 51.325-34.323 62.772-69.503 2.269-.136 4.5-.137 6.808-.416 2.848-.343 4.947-2.14 4.947-5.006 2.318-19.146-.419-36.956-7.635-52.19 9.747-3.914 18.985-9.749 27.476-17.629 1.972-1.835 2.331-4.734 1.096-6.96zM145.269 75.006c0-7.788 6.335-14.123 14.119-14.123h36.398c6.249 0 10.411-6.3 8.15-12.134a15.743 15.743 0 0 1-1.063-5.667c0-9.316 8.236-16.998 18.221-15.395 9.603 1.524 15.547 11.702 11.902 21.088-2.271 5.858 1.938 12.108 8.146 12.108h36.417c7.788 0 14.123 6.334 14.123 14.123v14.562H145.269zM80.058 465.163c-10.732 0-19.465-8.733-19.465-19.468V100.404c0-10.732 8.733-19.465 19.465-19.465h53.875v11.134c0 5.04 4.198 8.854 8.78 8.854h151.46c4.881 0 8.854-3.973 8.854-8.854V80.939h53.875c10.736 0 19.468 8.733 19.468 19.465v203.873c-11.514 3.198-24.087 9.931-34.938 19.716-.428.165-.844.387-1.271.561.758-10.91 4.75-28.662 22.618-30.872a5.664 5.664 0 0 0 4.925-6.32 5.663 5.663 0 0 0-6.32-4.925c-24.064 2.974-31.566 25.242-32.616 42.058-8.3-3.42-17.215-5.287-26.29-5.287-25.253 0-49.991 14.223-62.223 38.391H134.674a5.668 5.668 0 0 0 0 11.334h101.011c-2.973 9.882-3.858 19.022-1.905 32.779h-99.107a5.668 5.668 0 0 0 0 11.334h101.213c4.419 19.148 12.721 37.957 22.186 52.118H80.058zm350.231-50.038c-48.181 3.675-84.376-29.061-80.828-80.788 49.808-3.722 84.367 30.582 80.828 80.788zm-63.729 69.396c-10.323 0-20.424-2.726-29.212-7.88a5.669 5.669 0 0 0-5.733 0c-8.784 5.154-18.86 7.88-29.138 7.88-31.52 0-72.07-78.482-53.056-119.872 9.647-20.97 30.705-34.104 53.082-34.104a57.83 57.83 0 0 1 29.156 7.917c1.638.957 4.011 1.029 6.162-.239-1.515 50.832 32.772 85.744 79.503 88.346-10.566 29.854-30.399 57.952-50.764 57.952zm61.412-125.68c-13.283-20.151-36.391-34.493-65.763-36.08 32.3-19.311 67.688-8.883 87.626 23.031-6.877 5.778-14.204 10.153-21.863 13.049zm-298.969-83.658a5.668 5.668 0 0 1 5.667-5.667h167.608a5.668 5.668 0 0 1 0 11.334H134.67a5.669 5.669 0 0 1-5.667-5.667zm0 44.058a5.668 5.668 0 0 1 5.667-5.667h131.018a5.668 5.668 0 0 1 0 11.334H134.67a5.67 5.67 0 0 1-5.667-5.667zm47.574-121.293 21.162-.35v21.512c0 6.058 4.929 10.983 10.987 10.983h19.502c6.058 0 10.983-4.925 10.983-10.983l-.35-21.162h21.512c6.058 0 10.983-4.925 10.983-10.983v-19.502c0-6.058-4.925-10.987-10.983-10.987l-21.162.35v-21.512c0-6.058-4.925-10.983-10.983-10.983h-19.502c-6.058 0-10.987 4.925-10.987 10.983l.35 21.162h-21.512c-6.058 0-10.983 4.929-10.983 10.987v19.502c0 6.058 4.925 10.983 10.983 10.983zm21.512-30.138c6.058 0 10.983-4.925 10.983-10.983l-.347-21.162 19.151-.35v21.512c0 6.058 4.925 10.983 10.983 10.983h21.169l.343 18.804h-21.512c-6.058 0-10.983 4.925-10.983 10.983l.35 21.162-19.155.35v-21.512c0-6.058-4.925-10.983-10.983-10.983l-21.162.35-.35-19.155h21.513z" opacity="1" data-original="url(#a)" class=""></path></g></svg>