<svg xmlns="http://www.w3.org/2000/svg" xmlns:xlink="http://www.w3.org/1999/xlink" id="Capa_1" x="0px" y="0px" viewBox="0 0 512 512" style="enable-background:new 0 0 512 512;" xml:space="preserve" width="512" height="512"><g>			<path id="XMLID_755_" style="fill:none;stroke:#000000;stroke-width:20;stroke-linecap:round;stroke-linejoin:round;stroke-miterlimit:10;" d="&#10;&#9;&#9;M425.878,271.38c0,0-0.005-0.005-0.007-0.008c-36.56,13.517-95.879,30.402-170.373,29.811&#10;&#9;&#9;c-70.6-0.56-127.014-16.597-162.752-29.811l-0.002,0.001c-4.859,11.141-10.118,25.259-14.348,41.871&#10;&#9;&#9;c24.83,6.447,57.439,17.752,92.257,38.313c39.731,23.455,67.615,50.244,85.347,70.115c17.732-19.871,45.615-46.66,85.347-70.115&#10;&#9;&#9;c35.976-21.246,69.603-32.613,94.725-38.948l0.001-0.001c-0.468-2.642-0.954-5.24-1.46-7.784&#10;&#9;&#9;C432.364,293.504,429.421,282.348,425.878,271.38z"></path>			<line id="XMLID_746_" style="fill:none;stroke:#000000;stroke-width:20;stroke-linecap:round;stroke-linejoin:round;stroke-miterlimit:10;" x1="256" y1="421.673" x2="256" y2="502"></line>			<path id="XMLID_691_" style="fill:none;stroke:#000000;stroke-width:20;stroke-linecap:round;stroke-linejoin:round;stroke-miterlimit:10;" d="&#10;&#9;&#9;M100.032,10c9.418,27.591,20.301,69.835,20.416,122.163c0.062,28.119-2.999,53.359-7.3,75.011&#10;&#9;&#9;c-4.387,22.088-11.402,43.557-20.404,64.199c-11.363,26.056-24.936,68.34-22.333,120.931c2.481,50.114,18.598,88.315,29.62,109.696&#10;&#9;&#9;"></path>			<path id="XMLID_690_" style="fill:none;stroke:#000000;stroke-width:20;stroke-linecap:round;stroke-linejoin:round;stroke-miterlimit:10;" d="&#10;&#9;&#9;M421.496,502c9.418-27.591,20.301-69.835,20.416-122.163c0.062-28.119-2.999-53.359-7.3-75.011&#10;&#9;&#9;c-4.388-22.088-11.402-43.557-20.404-64.199c-11.363-26.056-24.936-68.34-22.333-120.931c2.481-50.114,18.598-88.315,29.62-109.696&#10;&#9;&#9;"></path>			<line id="XMLID_687_" style="fill:none;stroke:#000000;stroke-width:20;stroke-linecap:round;stroke-linejoin:round;stroke-miterlimit:10;" x1="502" y1="130.49" x2="431.714" y2="130.49"></line>			<polyline id="XMLID_677_" style="fill:none;stroke:#000000;stroke-width:20;stroke-linecap:round;stroke-linejoin:round;stroke-miterlimit:10;" points="&#10;&#9;&#9;471.878,90.326 431.714,130.49 471.878,170.653 &#9;"></polyline>			<line id="XMLID_675_" style="fill:none;stroke:#000000;stroke-width:20;stroke-linecap:round;stroke-linejoin:round;stroke-miterlimit:10;" x1="10" y1="130.49" x2="80.286" y2="130.49"></line>			<polyline id="XMLID_674_" style="fill:none;stroke:#000000;stroke-width:20;stroke-linecap:round;stroke-linejoin:round;stroke-miterlimit:10;" points="&#10;&#9;&#9;40.122,90.326 80.286,130.49 40.122,170.653 &#9;"></polyline>			<line id="XMLID_673_" style="fill:none;stroke:#000000;stroke-width:20;stroke-linecap:round;stroke-linejoin:round;stroke-miterlimit:10;" x1="256" y1="250.98" x2="256" y2="250.98"></line></g></svg>