<svg xmlns="http://www.w3.org/2000/svg" xmlns:xlink="http://www.w3.org/1999/xlink" width="512" height="512" x="0" y="0" viewBox="0 0 512 512" style="enable-background:new 0 0 512 512" xml:space="preserve" class=""><g><linearGradient id="a" x1="111.91" x2="400.092" y1="435.001" y2="146.819" gradientUnits="userSpaceOnUse"><stop stop-opacity="1" stop-color="#0097b2" offset="0.005791505791505791"></stop><stop stop-opacity="1" stop-color="#3cc7c6" offset="1"></stop></linearGradient><path fill="url(#a)" d="M249.792 9.025C242.816 18.156 78.971 233.87 78.971 328.851c0 97.612 79.415 177.031 177.031 177.031 97.612 0 177.027-79.419 177.027-177.031 0-94.981-163.842-310.695-170.818-319.826-2.959-3.876-9.459-3.876-12.419 0zm167.614 319.826c0 89-72.404 161.408-161.404 161.408S94.594 417.851 94.594 328.851c0-79.739 131.051-261.118 161.408-302.06 30.353 40.934 161.404 222.298 161.404 302.06zm-249.752-.748c0 48.677 39.66 88.283 88.405 88.283 48.68 0 88.287-39.606 88.287-88.283 0-48.684-39.606-88.291-88.287-88.291-48.745.001-88.405 39.607-88.405 88.291zm88.405-72.667c40.068 0 72.664 32.596 72.664 72.668 0 40.064-32.596 72.66-72.664 72.66-40.133 0-72.782-32.596-72.782-72.66 0-40.073 32.649-72.668 72.782-72.668zm-35.018 72.66a7.809 7.809 0 0 1 7.811-7.811h19.338v-19.33a7.809 7.809 0 0 1 7.811-7.811 7.809 7.809 0 0 1 7.811 7.811v19.33h19.33a7.809 7.809 0 0 1 7.811 7.811 7.809 7.809 0 0 1-7.811 7.811h-19.33v19.338a7.809 7.809 0 0 1-7.811 7.811 7.809 7.809 0 0 1-7.811-7.811v-19.338h-19.338a7.81 7.81 0 0 1-7.811-7.811z" opacity="1" data-original="url(#a)" class=""></path></g></svg>