<svg xmlns="http://www.w3.org/2000/svg" xmlns:xlink="http://www.w3.org/1999/xlink" width="512" height="512" x="0" y="0" viewBox="0 0 512 512" style="enable-background:new 0 0 512 512" xml:space="preserve"><g><linearGradient id="a" x1="259.563" x2="253.07" y1="511.533" y2="15.929" gradientUnits="userSpaceOnUse"><stop stop-opacity="1" stop-color="#3cc7c6" offset="0"></stop><stop stop-opacity="1" stop-color="#00b1d2" offset="1"></stop></linearGradient><path fill="url(#a)" fill-rule="evenodd" d="M285.258 313.834c-79.362-63.36-121.388-114.959-124.941-153.4a64.458 64.458 0 0 1 119.8-32.779 6 6 0 0 0 10.294 0 64.458 64.458 0 0 1 119.8 32.779c-3.552 38.441-45.578 90.04-124.951 153.4zm60.5-229.588a76.95 76.95 0 0 0-60.5 29.72 76.438 76.438 0 0 0-136.938 46.728c0 .181.01.35.019.531 3.788 43.079 47.362 97.039 133.2 164.979a5.976 5.976 0 0 0 7.445 0c85.84-67.94 129.413-121.9 133.2-164.979.009-.181.018-.35.018-.531a76.533 76.533 0 0 0-76.447-76.448zm56.657 272.7c72.922-94.03 93.294-176.711 60.533-245.74C428.5 38.594 324.048 2.526 248.111 14.4A216.388 216.388 0 0 0 75.138 161.055c13.318 33.7 14.172 45.409 12.412 51.269.807 20.051-15.772 48.662-50.593 87.261l22.352 14.529a6.1 6.1 0 0 1 2.076 2.32c7.3 14.43 6.572 28.121-2.028 40.03 12.252 5.79 16.139 7.43 17.371 7.891a5.989 5.989 0 0 1 4.118 9.22 6.439 6.439 0 0 1-1.448 1.589L67.429 386.3l19.088 17.76a6.036 6.036 0 0 1 1.882 5.02c-3.439 32.761 2.387 42.191 6.171 44.9 3.619 2.591 9.549 2.011 17.626-1.719a6.387 6.387 0 0 1 1.283-.43c72.239-15.159 122.337-35.481 148.9-60.409a6.006 6.006 0 1 1 8.219 8.759c-17.249 16.169-43.409 30.429-78.146 42.649 11.969 19.611 20.74 38.721 26.127 56.951H434.5c-32.831-66.241-43.606-112.5-32.967-141.249a6.1 6.1 0 0 1 .887-1.591zM246.247 2.545a229.559 229.559 0 0 0-183.2 156.89 5.947 5.947 0 0 0 .142 4.049c14.79 37 13.27 44.41 12.822 45.521a5.914 5.914 0 0 0-.5 2.93c.962 11.839-7.3 36.16-52.155 84.76a5.984 5.984 0 0 0 1.137 9.1l26.881 17.47c5.468 11.811 3.581 21.68-5.892 30.951a5.985 5.985 0 0 0 1.613 9.7c7.516 3.589 13.489 6.389 17.8 8.359l-10.356 9.64a6.011 6.011 0 0 0 0 8.782l21.631 20.13c-2.646 28.6 1 45.449 11.413 52.909 7.26 5.2 17.016 5.1 29.019-.29a646.607 646.607 0 0 0 64.171-16.691c13.111 21.061 22.348 41.43 27.467 60.58a6.009 6.009 0 0 0 5.8 4.45h230.2a6 6 0 0 0 5.34-8.729c-33.8-66.131-46.272-113.06-37.091-139.511 37.393-48.379 61.581-94.409 71.88-136.82 10.492-43.169 6.931-83.77-10.577-120.67C437.039 28.606 326.469-9.995 246.247 2.545z" opacity="1" data-original="url(#a)"></path></g></svg>