<svg xmlns="http://www.w3.org/2000/svg" xmlns:xlink="http://www.w3.org/1999/xlink" width="512" height="512" x="0" y="0" viewBox="0 0 64 64" style="enable-background:new 0 0 512 512" xml:space="preserve" class=""><g><linearGradient id="a" x1="32.207" x2="32.207" y1="63" y2=".586" gradientUnits="userSpaceOnUse"><stop stop-opacity="1" stop-color="#3cc7c6" offset="0.0019305019305019305"></stop><stop stop-opacity="1" stop-color="#0bb1d3" offset="1"></stop></linearGradient><path fill="url(#a)" d="M6 21h3.532l4.087 4.905A3.035 3.035 0 0 0 15.957 27 3.046 3.046 0 0 0 19 23.957V21h1c2.757 0 5-2.243 5-5V6c0-2.757-2.243-5-5-5H6C3.243 1 1 3.243 1 6v10c0 2.757 2.243 5 5 5zM3 6c0-1.654 1.346-3 3-3h14c1.654 0 3 1.346 3 3v10c0 1.654-1.346 3-3 3h-3v4.957a1.044 1.044 0 0 1-1.845.667L10.468 19H6c-1.654 0-3-1.346-3-3zm7 11h6v-3h3V8h-3V5h-6v3H7v6h3zm-1-5v-2h3V7h2v3h3v2h-3v3h-2v-3zm39.586-7 3 3L48 11.586l-2-2-3.983 3.983-2-2L11.586 40l2 2-3 3 2 2-5 5 1.5 1.5-6.793 6.793 1.414 1.414 6.793-6.793 1.5 1.5 5-5 2 2 3-3 2 2 4.258-4.258A12.056 12.056 0 0 0 28 50.601V51c0 6.617 5.383 12 12 12s12-5.383 12-12v-.399c0-2.569-.803-5.023-2.323-7.097l-7.094-9.673 9.848-9.847-2-2L54.414 18l-2-2L56 12.414l3 3L63.414 11 53 .586zM12 53.586 10.414 52 14 48.414 15.586 50zm7-3L13.414 45 15 43.414 20.586 49zm31 .015V51c0 5.514-4.486 10-10 10s-10-4.486-10-10v-.399c0-2.142.669-4.187 1.936-5.913L40 33.691l8.064 10.995A9.937 9.937 0 0 1 50 50.601zm-8.614-18.402L40 30.309l-9.013 12.29L24 49.586 14.414 40 16 38.414l4.293 4.293 1.414-1.414L17.414 37 19 35.414l2.293 2.293 1.414-1.414L20.414 34 22 32.414l4.293 4.293 1.414-1.414L23.414 31 25 29.414l2.293 2.293 1.414-1.414L26.414 28 28 26.414l4.293 4.293 1.414-1.414L29.414 25 31 23.414l2.293 2.293 1.414-1.414L32.414 22 34 20.414l4.293 4.293 1.414-1.414L35.414 19 37 17.414l2.293 2.293 1.414-1.414L38.414 16l1.603-1.603 9.586 9.586zm7.631-11.63-5.586-5.586L46 12.414 51.586 18zM51 14.586 49.414 13 53 9.414 54.586 11zm8-2L51.414 5 53 3.414 60.586 11zM41.713 56.751l.573 1.916A7.972 7.972 0 0 1 40 59v-2a5.98 5.98 0 0 0 1.713-.249zm3.209-2.324 1.64 1.146a8.024 8.024 0 0 1-1.989 1.987l-1.146-1.639a5.979 5.979 0 0 0 1.495-1.494zm-.084-7.375-4.645-6.333 1.613-1.184 4.645 6.334A7.956 7.956 0 0 1 48 50.601V51c0 .778-.112 1.548-.333 2.286l-1.916-.572c.165-.554.249-1.13.249-1.714v-.399a5.962 5.962 0 0 0-1.162-3.549z" opacity="1" data-original="url(#a)"></path></g></svg>