<svg xmlns="http://www.w3.org/2000/svg" xmlns:xlink="http://www.w3.org/1999/xlink" width="512" height="512" x="0" y="0" viewBox="0 0 64 64" style="enable-background:new 0 0 512 512" xml:space="preserve" class=""><g><linearGradient id="a" x1="9.673" x2="53.686" y1="32" y2="32" gradientUnits="userSpaceOnUse"><stop stop-opacity="1" stop-color="#3cc7c6" offset="0"></stop><stop stop-opacity="1" stop-color="#0097b2" offset="1"></stop></linearGradient><linearGradient xlink:href="#a" id="b" x1="9.673" x2="53.686" y1="35.957" y2="35.957"></linearGradient><path fill="url(#a)" d="M43.332 14.885a2.958 2.958 0 0 0-3.315 2.365A7.6 7.6 0 0 1 37 21.12V5a1 1 0 0 0-1.707-.707 4.66 4.66 0 0 1-6.586 0A1 1 0 0 0 27 5v4.41a1 1 0 0 0 2 0V6.947a6.807 6.807 0 0 0 6 0v5.829a4.646 4.646 0 0 1-6.292-.239 1 1 0 0 0-1.708.707v7.879a7.552 7.552 0 0 1-3.007-3.842c-.536-1.733-1.769-2.625-3.325-2.4-3.207.49-6.668 5.743-6.668 13.384 0 5.858 2.781 7.432 5.016 8.7 2.033 1.151 3.638 2.06 3.485 6.061-.1 2.686.512 4.522 1.828 5.458a3.946 3.946 0 0 0 2.671.645V55a5 5 0 0 0 10 0v-5.873a3.9 3.9 0 0 0 2.671-.647c1.316-.936 1.932-2.772 1.828-5.458a1.013 1.013 0 0 0-1.037-.961A1 1 0 0 0 39.5 43.1c.074 1.942-.268 3.239-.988 3.752-.8.567-2.133.227-3.115-.156a9.286 9.286 0 0 0-6.8 0c-.983.384-2.317.721-3.114.157-.72-.513-1.062-1.81-.988-3.752.2-5.218-2.3-6.631-4.5-7.877-2.147-1.215-4-2.264-4-6.956 0-7.091 3.185-11.132 4.967-11.4.212-.028.767-.115 1.126 1.04A10.17 10.17 0 0 0 32 24.568a10.178 10.178 0 0 0 9.917-6.695c.349-1.125.908-1.04 1.116-1.01 1.782.27 4.967 4.311 4.967 11.4 0 4.691-1.854 5.74-4 6.955a10.056 10.056 0 0 0-2.952 2.2 1 1 0 0 0 1.532 1.292 8.4 8.4 0 0 1 2.4-1.749C47.219 35.7 50 34.123 50 28.265c0-7.641-3.461-12.894-6.668-13.38zM32 58a3 3 0 0 1-3-3v-1.6a6.635 6.635 0 0 0 6 0V55a3 3 0 0 1-3 3zm2.67-9.444c.113.044.22.077.33.116v2.316a4.566 4.566 0 0 1-6 0V48.67a7.492 7.492 0 0 1 5.67-.114zM32 22.568a9.419 9.419 0 0 1-3-.5v-6.886a6.651 6.651 0 0 0 6 0v6.89a9.432 9.432 0 0 1-3 .496z" opacity="1" data-original="url(#a)" class=""></path><g fill="url(#b)"><path d="M41.351 33.255a1 1 0 0 0-1.4-.218 10.174 10.174 0 0 0-3.648 4.674 1 1 0 0 0 1.867.717 8.137 8.137 0 0 1 2.959-3.776 1 1 0 0 0 .222-1.397zM24.046 33.037a1 1 0 1 0-1.178 1.615 8.129 8.129 0 0 1 2.959 3.776 1 1 0 0 0 1.867-.717 10.171 10.171 0 0 0-3.648-4.674z" fill="" opacity="1"></path></g></g></svg>